<svg width="40" height="36" viewBox="0 0 40 36" fill="none" xmlns="http://www.w3.org/2000/svg">
<path d="M14.543 23.3689L25.1579 12.7539" stroke="white" stroke-width="3.53832" stroke-linecap="round" stroke-linejoin="round"/>
<path d="M15.4275 14.5231C15.9161 14.5231 16.3121 14.127 16.3121 13.6385C16.3121 13.1499 15.9161 12.7539 15.4275 12.7539C14.939 12.7539 14.543 13.1499 14.543 13.6385C14.543 14.127 14.939 14.5231 15.4275 14.5231Z" fill="white" stroke="white" stroke-width="3.53832" stroke-linecap="round" stroke-linejoin="round"/>
<path d="M24.2733 23.3688C24.7618 23.3688 25.1578 22.9727 25.1578 22.4842C25.1578 21.9956 24.7618 21.5996 24.2733 21.5996C23.7847 21.5996 23.3887 21.9956 23.3887 22.4842C23.3887 22.9727 23.7847 23.3688 24.2733 23.3688Z" fill="white" stroke="white" stroke-width="3.53832" stroke-linecap="round" stroke-linejoin="round"/>
<path d="M7.46567 9.56973C7.46567 8.53747 7.87573 7.54748 8.60565 6.81756C9.33557 6.08764 10.3256 5.67758 11.3578 5.67758H13.127C14.1547 5.67699 15.1404 5.26997 15.8692 4.54532L17.1076 3.30691C17.4693 2.94317 17.8993 2.65452 18.373 2.45755C18.8466 2.26058 19.3545 2.15918 19.8675 2.15918C20.3804 2.15918 20.8883 2.26058 21.362 2.45755C21.8356 2.65452 22.2657 2.94317 22.6274 3.30691L23.8658 4.54532C24.5945 5.26997 25.5803 5.67699 26.608 5.67758H28.3771C29.4094 5.67758 30.3994 6.08764 31.1293 6.81756C31.8592 7.54748 32.2693 8.53747 32.2693 9.56973V11.3389C32.2699 12.3666 32.6769 13.3523 33.4015 14.0811L34.6399 15.3195C35.0037 15.6812 35.2923 16.1112 35.4893 16.5849C35.6863 17.0585 35.7877 17.5664 35.7877 18.0794C35.7877 18.5923 35.6863 19.1003 35.4893 19.5739C35.2923 20.0475 35.0037 20.4776 34.6399 20.8393L33.4015 22.0777C32.6769 22.8064 32.2699 23.7922 32.2693 24.8199V26.589C32.2693 27.6213 31.8592 28.6113 31.1293 29.3412C30.3994 30.0711 29.4094 30.4812 28.3771 30.4812H26.608C25.5803 30.4818 24.5945 30.8888 23.8658 31.6134L22.6274 32.8519C22.2657 33.2156 21.8356 33.5042 21.362 33.7012C20.8883 33.8982 20.3804 33.9996 19.8675 33.9996C19.3545 33.9996 18.8466 33.8982 18.373 33.7012C17.8993 33.5042 17.4693 33.2156 17.1076 32.8519L15.8692 31.6134C15.1404 30.8888 14.1547 30.4818 13.127 30.4812H11.3578C10.3256 30.4812 9.33557 30.0711 8.60565 29.3412C7.87573 28.6113 7.46567 27.6213 7.46567 26.589V24.8199C7.46508 23.7922 7.05806 22.8064 6.3334 22.0777L5.09499 20.8393C4.73126 20.4776 4.4426 20.0475 4.24563 19.5739C4.04866 19.1003 3.94727 18.5923 3.94727 18.0794C3.94727 17.5664 4.04866 17.0585 4.24563 16.5849C4.4426 16.1112 4.73126 15.6812 5.09499 15.3195L6.3334 14.0811C7.05806 13.3523 7.46508 12.3666 7.46567 11.3389V9.56973Z" stroke="white" stroke-width="3.53832" stroke-linecap="round" stroke-linejoin="round"/>
</svg>
