<svg width="40" height="35" viewBox="0 0 40 35" fill="none" xmlns="http://www.w3.org/2000/svg">
<path d="M5.29576 17.0791C5.29576 9.03203 11.8201 2.50767 19.8672 2.50767C27.9143 2.50767 34.4386 9.03203 34.4386 17.0791C34.4386 25.1262 27.9143 31.6505 19.8672 31.6505C11.8201 31.6505 5.29576 25.1262 5.29576 17.0791ZM19.8672 0.0791016C10.4783 0.0791016 2.86719 7.69024 2.86719 17.0791C2.86719 26.468 10.4783 34.0791 19.8672 34.0791C29.256 34.0791 36.8672 26.468 36.8672 17.0791C36.8672 7.69024 29.256 0.0791016 19.8672 0.0791016ZM24.3928 7.71696C24.1597 7.49214 23.8485 7.36652 23.5246 7.36652C23.2008 7.36652 22.8895 7.49214 22.6564 7.71696C22.5424 7.82684 22.4517 7.95858 22.3897 8.10432C22.3278 8.25005 22.2958 8.40678 22.2958 8.56514C22.2958 8.72349 22.3278 8.88023 22.3897 9.02596C22.4517 9.17169 22.5424 9.30344 22.6564 9.41332C23.6842 10.4079 24.5015 11.599 25.0597 12.9158C25.6179 14.2326 25.9055 15.6483 25.9055 17.0785C25.9055 18.5087 25.6179 19.9244 25.0597 21.2412C24.5015 22.558 23.6842 23.7491 22.6564 24.7437C22.5422 24.8536 22.4513 24.9854 22.3892 25.1312C22.3272 25.2771 22.2952 25.434 22.2952 25.5925C22.2952 25.751 22.3272 25.9078 22.3892 26.0537C22.4513 26.1995 22.5422 26.3313 22.6564 26.4412C22.8895 26.6661 23.2008 26.7917 23.5246 26.7917C23.8485 26.7917 24.1597 26.6661 24.3928 26.4412C25.648 25.2264 26.646 23.7715 27.3277 22.1632C28.0093 20.5549 28.3605 18.8259 28.3605 17.0791C28.3605 15.3323 28.0093 13.6033 27.3277 11.995C26.646 10.3867 25.648 8.93182 24.3928 7.71696ZM17.7908 10.1528C17.9011 10.0392 18.0331 9.94882 18.179 9.88713C18.3249 9.82543 18.4817 9.79364 18.6402 9.79364C18.7986 9.79364 18.9554 9.82543 19.1013 9.88713C19.2472 9.94882 19.3792 10.0392 19.4895 10.1528C23.2344 13.979 23.2344 20.1828 19.4895 24.0102C19.3792 24.1241 19.2471 24.2146 19.1011 24.2764C18.955 24.3382 18.7981 24.37 18.6395 24.37C18.481 24.37 18.324 24.3382 18.178 24.2764C18.032 24.2146 17.8999 24.1241 17.7895 24.0102C17.5636 23.7777 17.4372 23.4663 17.4372 23.142C17.4372 22.8178 17.5636 22.5063 17.7895 22.2738C20.5982 19.4069 20.5982 14.7574 17.7895 11.888C17.564 11.6556 17.4378 11.3444 17.4378 11.0204C17.4378 10.6965 17.564 10.3853 17.7895 10.1528M14.5474 12.5947C14.4464 12.4776 14.3213 12.3836 14.1807 12.3192C14.0401 12.2548 13.8873 12.2214 13.7326 12.2214C13.578 12.2214 13.4251 12.2548 13.2845 12.3192C13.1439 12.3836 13.0188 12.4776 12.9178 12.5947C12.7007 12.8445 12.5811 13.1642 12.5811 13.4951C12.5811 13.8261 12.7007 14.1458 12.9178 14.3955C14.2584 15.877 14.2584 18.2812 12.9178 19.7627C12.4685 20.2605 12.4685 21.0668 12.9178 21.5647C13.3671 22.0625 14.0969 22.0625 14.5474 21.5647C16.789 19.0875 16.789 15.0719 14.5474 12.5947Z" fill="white"/>
</svg>
