<svg width="42" height="35" viewBox="0 0 42 35" fill="none" xmlns="http://www.w3.org/2000/svg">
<path d="M35.6758 28.1562C35.6758 29.4409 35.1655 30.6729 34.2571 31.5813C33.3487 32.4897 32.1167 33 30.832 33C29.5474 33 28.3154 32.4897 27.407 31.5813C26.4986 30.6729 25.9883 29.4409 25.9883 28.1562C25.9883 26.8716 26.4986 25.6396 27.407 24.7312C28.3154 23.8228 29.5474 23.3125 30.832 23.3125C32.1167 23.3125 33.3487 23.8228 34.2571 24.7312C35.1655 25.6396 35.6758 26.8716 35.6758 28.1562ZM16.3008 28.1562C16.3008 29.4409 15.7905 30.6729 14.8821 31.5813C13.9737 32.4897 12.7417 33 11.457 33C10.1724 33 8.94036 32.4897 8.03198 31.5813C7.1236 30.6729 6.61328 29.4409 6.61328 28.1562C6.61328 26.8716 7.1236 25.6396 8.03198 24.7312C8.94036 23.8228 10.1724 23.3125 11.457 23.3125C12.7417 23.3125 13.9737 23.8228 14.8821 24.7312C15.7905 25.6396 16.3008 26.8716 16.3008 28.1562Z" stroke="white" stroke-width="2.90625" stroke-linecap="round" stroke-linejoin="round"/>
<path d="M25.9883 28.1562H16.3008M26.957 24.2812V7.8125C26.957 5.07287 26.957 3.70306 26.1045 2.8525C25.2559 2 23.8861 2 21.1445 2H7.58203C4.84241 2 3.47259 2 2.62203 2.8525C1.76953 3.70113 1.76953 5.07094 1.76953 7.8125V23.3125C1.76953 25.1241 1.76953 26.0289 2.15897 26.7031C2.41404 27.1449 2.78089 27.5117 3.22266 27.7668C3.89691 28.1562 4.80172 28.1562 6.61328 28.1562M27.9258 6.84375H31.4152C33.0233 6.84375 33.8274 6.84375 34.4939 7.22156C35.1604 7.59744 35.5731 8.28719 36.4004 9.66669L39.6922 15.1498C40.103 15.8357 40.3083 16.1806 40.4149 16.5603C40.5195 16.942 40.5195 17.3411 40.5195 18.1413V23.3125C40.5195 25.1241 40.5195 26.0289 40.1301 26.7031C39.875 27.1449 39.5082 27.5117 39.0664 27.7668C38.3922 28.1562 37.4873 28.1562 35.6758 28.1562" stroke="white" stroke-width="2.90625" stroke-linecap="round" stroke-linejoin="round"/>
</svg>
