<svg width="39" height="36" viewBox="0 0 39 36" fill="none" xmlns="http://www.w3.org/2000/svg">
<path d="M3.28906 10.8889V19.7778C3.28906 26.4818 3.29084 29.8329 5.37262 31.9164C7.4544 34 10.8073 34 17.5113 34H21.0668C27.7708 34 31.1219 33.9982 33.2055 31.9164C35.2891 29.8347 35.2891 26.4818 35.2891 19.7778V10.8889M3.28906 10.8889H35.2891M3.28906 10.8889L4.82684 7.47022C6.02151 4.81778 6.61706 3.49333 7.82595 2.74667C9.03484 2 10.5868 2 13.6891 2H24.8891C27.9913 2 29.5415 2 30.7522 2.74667C31.9611 3.49333 32.5566 4.81778 33.7513 7.47022L35.2891 10.8889M19.2891 10.8889V2" stroke="white" stroke-width="2.66667" stroke-linecap="round" stroke-linejoin="round"/>
<path d="M13.0666 20.6669H22.8444C23.7874 20.6669 24.6918 21.0415 25.3586 21.7083C26.0254 22.3751 26.4 23.2794 26.4 24.2224C26.4 25.1654 26.0254 26.0698 25.3586 26.7366C24.6918 27.4034 23.7874 27.778 22.8444 27.778H21.0666M15.7333 17.1113L12.1777 20.6669L15.7333 24.2224" stroke="white" stroke-width="2.66667" stroke-linecap="round" stroke-linejoin="round"/>
</svg>
