<svg width="40" height="36" viewBox="0 0 40 36" fill="none" xmlns="http://www.w3.org/2000/svg">
<path fill-rule="evenodd" clip-rule="evenodd" d="M33.4549 14.9229C32.9172 9.40668 29.656 0.733398 19.5778 0.733398C9.49943 0.733398 6.23825 9.40668 5.70054 14.9229C3.81411 15.6388 2.56979 17.45 2.57817 19.4676V21.8962C2.57817 24.5786 4.75277 26.7532 7.43516 26.7532C10.1176 26.7532 12.2922 24.5786 12.2922 21.8962V19.4676C12.2835 17.4935 11.0849 15.7196 9.25655 14.9749C9.60351 11.7831 11.3035 4.20273 19.5778 4.20273C27.8521 4.20273 29.5346 11.7831 29.8816 14.9749C28.057 15.7212 26.8644 17.4963 26.8633 19.4676V21.8962C26.867 22.8101 27.1276 23.7045 27.6153 24.4775C28.103 25.2504 28.7981 25.8707 29.6214 26.2675C28.8929 27.6378 27.0367 29.4939 22.4746 30.049C21.5627 28.6642 19.7983 28.1183 18.2636 28.7461C16.729 29.3738 15.853 30.9998 16.1731 32.6267C16.4931 34.2536 17.9197 35.4264 19.5778 35.4264C20.2202 35.4229 20.8491 35.2409 21.3943 34.901C21.9394 34.561 22.3795 34.0763 22.6654 33.501C30.1071 32.651 32.4836 28.8174 33.2295 26.5623C35.2474 25.9087 36.6045 24.0172 36.5773 21.8962V19.4676C36.5857 17.45 35.3414 15.6388 33.4549 14.9229ZM8.82291 21.8962C8.82291 22.6625 8.20161 23.2838 7.43516 23.2838C6.66872 23.2838 6.0475 22.6626 6.0475 21.8962V19.4676C6.04609 19.2845 6.08095 19.1029 6.15006 18.9333C6.21917 18.7637 6.32117 18.6095 6.45017 18.4795C6.57917 18.3495 6.73262 18.2463 6.90168 18.1759C7.07074 18.1055 7.25207 18.0693 7.4352 18.0693C7.61834 18.0693 7.79966 18.1055 7.96873 18.1759C8.13779 18.2463 8.29124 18.3495 8.42024 18.4795C8.54924 18.6095 8.65123 18.7637 8.72034 18.9333C8.78945 19.1029 8.82431 19.2845 8.82291 19.4676V21.8962ZM30.3326 19.4676C30.3326 18.7012 30.9539 18.0799 31.7203 18.0799C32.4868 18.0799 33.1081 18.7012 33.1081 19.4676V21.8962C33.1081 22.6625 32.4868 23.2838 31.7203 23.2838C30.9539 23.2838 30.3326 22.6626 30.3326 21.8962V19.4676Z" fill="white"/>
</svg>
