<svg width="105" height="36" viewBox="0 0 105 36" fill="none" xmlns="http://www.w3.org/2000/svg">
<path d="M10.119 8.45395V9.10973L7.63841 9.39485V26.5876L14.7379 26.5021L16.2205 23.2517H17.1329L16.7908 27.5H1.36576V26.8157L3.84631 26.5591V9.39485L1.36576 9.10973V8.45395H10.119ZM18.7156 10.3072C18.7156 11.4667 18.2499 12.5692 17.3185 13.6146C16.3871 14.6601 15.5982 15.3063 14.952 15.5535L14.5243 14.8692C15.1706 14.527 15.7218 14.0233 16.178 13.358C16.6342 12.6927 16.9003 12.0085 16.9763 11.3052C16.7482 11.4192 16.4346 11.4762 16.0354 11.4762C15.6553 11.4762 15.3226 11.3052 15.0375 10.963C14.7714 10.6209 14.6383 10.1742 14.6383 9.62295C14.6383 9.05271 14.8379 8.60602 15.2371 8.28288C15.6363 7.95974 16.1305 7.79817 16.7197 7.79817C17.328 7.79817 17.8127 8.00726 18.1738 8.42544C18.535 8.82461 18.7156 9.45187 18.7156 10.3072ZM39.0371 27.5H30.6545V26.8157L32.964 26.5591L30.3409 20.0013H23.9257L21.6447 26.0744L24.1823 26.8157V27.5H18.2233V26.8157L20.3902 26.0744L27.2901 8.45395H29.286L36.8417 26.5591L39.0371 26.8157V27.5ZM29.9132 18.9464L27.119 12.018L24.3249 18.9464H29.9132ZM42.9873 17.5493H43.9567C46.998 17.5493 48.5187 16.0952 48.5187 13.187C48.5187 11.7804 48.224 10.7634 47.6348 10.1362C47.0456 9.48989 46.1142 9.16675 44.8406 9.16675C44.0233 9.16675 43.4055 9.20477 42.9873 9.2808V17.5493ZM42.5026 8.39693L45.696 8.31139C50.2199 8.31139 52.4818 9.93658 52.4818 13.187C52.4818 14.6316 51.9686 15.8101 50.9422 16.7224C49.9158 17.6348 48.5947 18.091 46.979 18.091H46.3232C48.4902 18.3761 49.9728 19.0319 50.7711 20.0584C51.5885 21.0848 51.9971 22.6434 51.9971 24.7343C51.9971 26.0269 52.2633 26.8157 52.7955 27.1008C52.9856 27.2149 53.2612 27.2719 53.6223 27.2719C54.0025 27.2719 54.5157 27.1198 55.162 26.8157L55.1905 27.5C54.1641 27.9372 53.1186 28.1558 52.0542 28.1558C49.9253 28.1558 48.6422 27.3574 48.205 25.7608C48.053 25.0955 47.9769 24.2686 47.9769 23.2802C47.9769 22.2728 47.9104 21.503 47.7774 20.9707C47.6633 20.4195 47.4827 19.9728 47.2356 19.6307C46.6844 18.7943 45.6485 18.3761 44.1278 18.3761H42.9873V26.5591L45.1543 26.8157V27.5H37.1139V26.8157L39.2237 26.5876V9.33783L36.7717 8.99568V8.28288C38.3684 8.35891 39.8035 8.39693 41.077 8.39693H42.5026ZM60.5572 30.0661C61.1655 29.819 61.9638 29.6954 62.9522 29.6954C63.9597 29.6954 65.4328 30.0661 67.3716 30.8074C69.3294 31.5677 70.6315 31.9479 71.2777 31.9479C72.2091 31.9479 72.96 31.3966 73.5302 30.2942L74.186 30.5793C73.3496 32.8793 71.8195 34.0293 69.5955 34.0293C68.341 34.0293 66.2216 33.5065 63.2374 32.4611C60.2721 31.4347 58.1242 30.9214 56.7936 30.9214L56.8792 30.4938C58.932 29.9615 60.9754 29.0872 63.0093 27.8707C60.101 27.7566 57.8011 26.7777 56.1093 24.9339C54.4366 23.0901 53.6003 20.7617 53.6003 17.9485C53.6003 15.1353 54.4842 12.7973 56.2519 10.9345C58.0387 9.05271 60.4337 8.11181 63.4369 8.11181C66.4592 8.11181 68.8542 9.05271 70.622 10.9345C72.4087 12.7973 73.3021 15.1068 73.3021 17.8629C73.3021 20.6191 72.5228 22.9096 70.9641 24.7343C69.4055 26.5591 67.2956 27.595 64.6344 27.8421C62.9617 28.8306 61.5932 29.5529 60.5287 30.0091L60.5572 30.0661ZM63.494 27.0153C67.1435 27.0153 68.9683 24.012 68.9683 18.0055C68.9683 15.1163 68.5501 12.8923 67.7137 11.3337C66.8964 9.77501 65.4803 8.99568 63.4654 8.99568C61.4506 8.99568 60.0155 9.77501 59.1601 11.3337C58.3238 12.8923 57.9056 15.1163 57.9056 18.0055C57.9056 24.012 59.7684 27.0153 63.494 27.0153ZM72.9744 27.5V26.8157L75.455 26.5591V9.39485L72.9744 9.13824V8.45395H87.5156V12.5027H86.6032L85.4912 9.48039L79.2471 9.39485V17.0646H84.7784L85.6623 14.9547H86.4606V20.2579H85.6338L84.7784 18.091H79.2471V26.5876L86.3466 26.5021L87.8292 23.2517H88.7416L88.3995 27.5H72.9744Z" fill="black"/>
<path d="M90.18 3.57V2.35H95.93V3.57H93.78V9.5H92.33V3.57H90.18ZM96.6633 9.5V2.35H98.7033L99.7133 5.94C99.7866 6.20667 99.8599 6.50333 99.9333 6.83C100.013 7.15 100.073 7.40333 100.113 7.59L100.163 7.87H100.183C100.31 7.18333 100.457 6.54 100.623 5.94L101.633 2.35H103.703V9.5H102.353V5.4L102.413 3.92H102.393C102.287 4.48 102.183 4.93333 102.083 5.28L100.853 9.5H99.4633L98.2633 5.28L97.9533 3.92H97.9333C97.9733 4.52 97.9933 5.01333 97.9933 5.4V9.5H96.6633Z" fill="black"/>
</svg>
