<svg width="35" height="35" viewBox="0 0 35 35" fill="none" xmlns="http://www.w3.org/2000/svg">
<path d="M3.29576 17.0791C3.29576 9.03203 9.82012 2.50767 17.8672 2.50767C25.9143 2.50767 32.4386 9.03203 32.4386 17.0791C32.4386 25.1262 25.9143 31.6505 17.8672 31.6505C9.82012 31.6505 3.29576 25.1262 3.29576 17.0791ZM17.8672 0.0791016C8.47833 0.0791016 0.867188 7.69024 0.867188 17.0791C0.867188 26.468 8.47833 34.0791 17.8672 34.0791C27.256 34.0791 34.8672 26.468 34.8672 17.0791C34.8672 7.69024 27.256 0.0791016 17.8672 0.0791016ZM22.3928 7.71696C22.1597 7.49214 21.8485 7.36652 21.5246 7.36652C21.2008 7.36652 20.8895 7.49214 20.6564 7.71696C20.5424 7.82684 20.4517 7.95858 20.3897 8.10432C20.3278 8.25005 20.2958 8.40678 20.2958 8.56514C20.2958 8.72349 20.3278 8.88023 20.3897 9.02596C20.4517 9.17169 20.5424 9.30344 20.6564 9.41332C21.6842 10.4079 22.5015 11.599 23.0597 12.9158C23.6179 14.2326 23.9055 15.6483 23.9055 17.0785C23.9055 18.5087 23.6179 19.9244 23.0597 21.2412C22.5015 22.558 21.6842 23.7491 20.6564 24.7437C20.5422 24.8536 20.4513 24.9854 20.3892 25.1312C20.3272 25.2771 20.2952 25.434 20.2952 25.5925C20.2952 25.751 20.3272 25.9078 20.3892 26.0537C20.4513 26.1995 20.5422 26.3313 20.6564 26.4412C20.8895 26.6661 21.2008 26.7917 21.5246 26.7917C21.8485 26.7917 22.1597 26.6661 22.3928 26.4412C23.648 25.2264 24.646 23.7715 25.3277 22.1632C26.0093 20.5549 26.3605 18.8259 26.3605 17.0791C26.3605 15.3323 26.0093 13.6033 25.3277 11.995C24.646 10.3867 23.648 8.93182 22.3928 7.71696ZM15.7908 10.1528C15.9011 10.0392 16.0331 9.94882 16.179 9.88713C16.3249 9.82543 16.4817 9.79364 16.6402 9.79364C16.7986 9.79364 16.9554 9.82543 17.1013 9.88713C17.2472 9.94882 17.3792 10.0392 17.4895 10.1528C21.2344 13.979 21.2344 20.1828 17.4895 24.0102C17.3792 24.1241 17.2471 24.2146 17.1011 24.2764C16.955 24.3382 16.7981 24.37 16.6395 24.37C16.481 24.37 16.324 24.3382 16.178 24.2764C16.032 24.2146 15.8999 24.1241 15.7895 24.0102C15.5636 23.7777 15.4372 23.4663 15.4372 23.142C15.4372 22.8178 15.5636 22.5063 15.7895 22.2738C18.5982 19.4069 18.5982 14.7574 15.7895 11.888C15.564 11.6556 15.4378 11.3444 15.4378 11.0204C15.4378 10.6965 15.564 10.3853 15.7895 10.1528M12.5474 12.5947C12.4464 12.4776 12.3213 12.3836 12.1807 12.3192C12.0401 12.2548 11.8873 12.2214 11.7326 12.2214C11.578 12.2214 11.4251 12.2548 11.2845 12.3192C11.1439 12.3836 11.0188 12.4776 10.9178 12.5947C10.7007 12.8445 10.5811 13.1642 10.5811 13.4951C10.5811 13.8261 10.7007 14.1458 10.9178 14.3955C12.2584 15.877 12.2584 18.2812 10.9178 19.7627C10.4685 20.2605 10.4685 21.0668 10.9178 21.5647C11.3671 22.0625 12.0969 22.0625 12.5474 21.5647C14.789 19.0875 14.789 15.0719 12.5474 12.5947Z" fill="white"/>
</svg>
